<svg height="512" viewBox="0 0 256 256" width="512" xmlns="http://www.w3.org/2000/svg"><path d="m51.407 183.035a2.5 2.5 0 0 1 -2.5-2.5v-118.535a2.5 2.5 0 0 1 5 0v118.535a2.5 2.5 0 0 1 -2.5 2.5z" fill="#ebe7f2"/><path d="m204.593 183.035a2.5 2.5 0 0 1 -2.5-2.5v-118.535a2.5 2.5 0 1 1 5 0v118.535a2.5 2.5 0 0 1 -2.5 2.5z" fill="#ebe7f2"/><g fill="#846f75"><path d="m217 31.965h-178a7.509 7.509 0 0 0 -7.5 7.5v136.135a7.508 7.508 0 0 0 7.5 7.5h68.652a20.1 20.1 0 0 1 -5.726 19.815l-3.412 3.185h-7.514a9 9 0 0 0 0 18h74a9 9 0 0 0 0-18h-7.514l-3.413-3.185a20.1 20.1 0 0 1 -5.725-19.815h68.652a7.508 7.508 0 0 0 7.5-7.5v-136.135a7.509 7.509 0 0 0 -7.5-7.5zm-178 5h178a2.5 2.5 0 0 1 2.5 2.5v20.035h-183v-20.035a2.5 2.5 0 0 1 2.5-2.5zm130 178.135a4 4 0 0 1 -4 4h-74a4 4 0 0 1 0-8h74a4 4 0 0 1 4 4zm-18.829-9h-44.342a25.1 25.1 0 0 0 6.965-23h30.412a25.1 25.1 0 0 0 6.965 23zm66.829-28h-178a2.5 2.5 0 0 1 -2.5-2.5v-111.1h183v111.1a2.5 2.5 0 0 1 -2.5 2.5z"/><path d="m52.128 56.089a7.25 7.25 0 1 0 -7.25-7.25 7.258 7.258 0 0 0 7.25 7.25zm0-9.5a2.25 2.25 0 1 1 -2.25 2.25 2.252 2.252 0 0 1 2.25-2.25z"/><path d="m70.628 56.089a7.25 7.25 0 1 0 -7.25-7.25 7.258 7.258 0 0 0 7.25 7.25zm0-9.5a2.25 2.25 0 1 1 -2.25 2.25 2.252 2.252 0 0 1 2.25-2.25z"/><path d="m89.129 56.089a7.25 7.25 0 1 0 -7.25-7.25 7.259 7.259 0 0 0 7.25 7.25zm0-9.5a2.25 2.25 0 1 1 -2.25 2.25 2.252 2.252 0 0 1 2.25-2.25z"/><path d="m176.333 51.339h29a2.5 2.5 0 0 0 0-5h-29a2.5 2.5 0 0 0 0 5z"/></g><path d="m113.429 163.807a7.5 7.5 0 0 1 -6.923-10.382l29.138-70.042a7.5 7.5 0 1 1 13.85 5.762l-29.138 70.042a7.482 7.482 0 0 1 -6.927 4.62zm29.144-80.043a2.507 2.507 0 0 0 -2.313 1.54l-29.137 70.042a2.5 2.5 0 0 0 1.348 3.268 2.539 2.539 0 0 0 3.269-1.348l29.137-70.042a2.5 2.5 0 0 0 -2.3-3.46z" fill="#ed9abc"/><path d="m159.157 151.628a7.5 7.5 0 0 1 -5.3-12.8l17.539-17.54-17.539-17.54a7.5 7.5 0 1 1 10.6-10.607l22.843 22.84a7.5 7.5 0 0 1 0 10.607l-22.84 22.843a7.45 7.45 0 0 1 -5.303 2.197zm0-55.685a2.5 2.5 0 0 0 -1.768 4.266l19.311 19.308a2.5 2.5 0 0 1 0 3.535l-19.311 19.308a2.5 2.5 0 0 0 0 3.536 2.562 2.562 0 0 0 3.536 0l22.843-22.843a2.5 2.5 0 0 0 0-3.536l-22.843-22.844a2.5 2.5 0 0 0 -1.768-.73z" fill="#ed9abc"/><path d="m96.843 151.628a7.449 7.449 0 0 1 -5.3-2.2l-22.843-22.84a7.5 7.5 0 0 1 0-10.607l22.84-22.843a7.5 7.5 0 0 1 10.606 10.607l-17.539 17.54 17.539 17.54a7.5 7.5 0 0 1 -5.3 12.8zm0-55.685a2.5 2.5 0 0 0 -1.768.731l-22.843 22.843a2.5 2.5 0 0 0 0 3.536l22.843 22.847a2.564 2.564 0 0 0 3.537 0 2.5 2.5 0 0 0 0-3.536l-19.312-19.312a2.5 2.5 0 0 1 0-3.535l19.307-19.308a2.5 2.5 0 0 0 -1.768-4.266z" fill="#ed9abc"/></svg>